<svg width="821" height="600" xmlns="http://www.w3.org/2000/svg" xmlns:xlink="http://www.w3.org/1999/xlink"><defs><path id="a" d="M0 .735h794.177v493.647H0z"/><path id="c" d="M0 516h794V1H0z"/></defs><g transform="translate(11 55)" fill="none" fill-rule="evenodd"><mask id="b" fill="#fff"><use xlink:href="#a"/></mask><path d="M118.636 494.382h119.962a177.226 177.226 0 0 0 13.037-5.242 176.833 176.833 0 0 0 5.536 5.242h449.02c53.078-35.845 87.986-96.607 87.986-165.534 0-99.19-72.294-181.462-167.004-196.909C602.721 55.822 531.43.735 447.278.735c-96.447 0-176.008 72.353-187.513 165.803-24.349-12.455-51.93-19.482-81.149-19.482C79.969 147.056 0 227.123 0 325.892c0 77.7 49.496 143.814 118.636 168.49" fill="#FFF5FF" mask="url(#b)"/><path d="M660.17 238.54s-6.842-7.976-.423-13.043c0 0 4.69-2.838 8.513-2.607 0 0-5.417 9.08-3.665 9.983 1.752.903 5.306-10.552 5.306-10.552s10.672-1.036 14.103.615c0 0-9.12 7.461-7.2 7.904 1.92.445 11.774-6.879 11.774-6.879s9.931 1.689 9.402 7.744c-.53 6.056-3.952 7.925-5.457 7.765-1.503-.16-10.3-3.518-10.494-2.286-.19 1.232 5.106 5.257 8.814 5.446 0 0-7.002 7.717-11.655 5.49-4.653-2.227-5.05-5.76-7.952-7.083-2.9-1.324-5.376-1.32-4.178.03 1.198 1.35 6.446 2.662 8.105 5.597 1.659 2.931 3.148 4.909-1.667 4.187-4.813-.725-12.64-4.247-12.982-8.278l-.344-4.032Z" fill="#82B378"/><path d="M694 231.047s-27.019-1.04-32.986 6.682c0 0-1.32 3.95-5.381 7.547L655 247s4.682-4.934 6.358-5.232c0 0-2.62-9.569 32.642-10.721" fill="#82B378"/><path d="M655.42 245.641s-6.002 4.045-6.42 11.271l1.089.088s1.918-7.471 5.384-10.393c3.466-2.922-.053-.966-.053-.966" fill="#82B378"/><path d="M636.858 227.223s10.864-6.104 5.794-14.387c0 0-4.057-5.086-8.404-6.392 0 0 2.319 12.351 0 12.641-2.319.29-1.594-13.95-1.594-13.95s-11.445-5.521-15.935-5.085c0 0 7.097 12.06 4.78 11.77-2.317-.291-10.285-12.498-10.285-12.498s-11.736-2.179-13.62 4.795c-1.883 6.975 1.159 10.463 2.897 10.9 1.74.435 12.894.29 12.605 1.743-.29 1.453-7.824 3.779-12.025 2.47 0 0 4.636 11.48 10.721 10.899 6.085-.582 7.969-4.36 11.736-4.65 3.767-.29 6.519.727 4.636 1.744-1.884 1.017-8.258.333-11.301 2.928-3.042 2.594-5.506 4.193.144 5.355 5.65 1.163 15.794.435 17.82-3.924l2.03-4.359Z" fill="#A8D29F"/><path d="M602 206s30.591 9.965 34.088 21.104c0 0-.147 4.981 2.912 10.697V240s-3.203-7.475-4.953-8.5c0 0 6.848-9.673-32.047-25.5" fill="#82B378"/><path d="M639.353 238.34s4.37 7.063 1.88 15.66l-1.126-.32s1.092-9.47-1.194-14.233c-2.286-4.762.44-1.107.44-1.107" fill="#82B378"/><path d="M654.424 219.377s-14.334-8.084-7.646-19.053c0 0 5.35-6.735 11.085-8.468 0 0-3.057 16.358 0 16.744 3.059.384 2.103-18.476 2.103-18.476s15.097-7.312 21.022-6.736c0 0-9.363 15.974-6.307 15.588 3.058-.384 13.57-16.549 13.57-16.549s15.48-2.887 17.965 6.351c2.485 9.237-1.53 13.856-3.822 14.432-2.294.579-17.01.387-16.628 2.31.382 1.924 10.32 5.004 15.863 3.272 0 0-6.116 15.203-14.143 14.433-8.027-.77-10.511-5.773-15.48-6.158-4.969-.386-8.6.962-6.115 2.31 2.484 1.347 10.893.44 14.907 3.877 4.012 3.435 7.262 5.552-.192 7.092-7.454 1.538-20.831.577-23.507-5.196l-2.675-5.773Z" fill="#A8D29F"/><path d="M699 192s-40.512 12.896-45.142 27.311c0 0 .194 6.448-3.858 13.845V236s4.244-9.672 6.559-10.999c0 0-9.067-12.519 42.441-33.001" fill="#82B378"/><path d="M650.308 232.814s-5.463 9.555-2.348 21.186l1.404-.435s-1.364-12.81 1.495-19.254c2.857-6.443-.551-1.497-.551-1.497" fill="#82B378"/><path d="M653.5 279c15.74 0 28.5-12.536 28.5-28h-57c0 15.464 12.76 28 28.5 28" fill="#F1A34F"/><path d="M661 278.785a28.942 28.942 0 0 1-3.537.215C641.743 279 629 266.464 629 251h7.072c0 14.287 10.876 26.071 24.928 27.785" fill="#FFB973"/><path d="M682 281h-58c0-2.208 1.58-4 3.528-4h50.944c1.948 0 3.528 1.792 3.528 4" fill="#F1A34F"/><mask id="d" fill="#fff"><use xlink:href="#c"/></mask><path fill="#D86713" mask="url(#d)" d="M624 252h58v-1h-58z"/><path d="M570.229 347.146c0-5.395 2.136-9.771 4.772-9.771s4.773 4.376 4.773 9.771v97.708c0 5.396-2.137 9.77-4.773 9.77-2.636 0-4.772-4.374-4.772-9.77v-97.708Zm-5.229-6.98v111.667c0 6.168 4.477 11.167 10 11.167 5.524 0 10-5 10-11.167V340.167c0-6.168-4.476-11.167-10-11.167-5.523 0-10 5-10 11.167ZM469.228 347.146c0-5.395 2.138-9.771 4.773-9.771 2.636 0 4.773 4.376 4.773 9.771v97.708c0 5.396-2.137 9.77-4.773 9.77-2.635 0-4.773-4.374-4.773-9.77v-97.708Zm-5.228-6.98v111.667c0 6.168 4.477 11.167 10.001 11.167 5.523 0 9.999-5 9.999-11.167V340.167c0-6.168-4.476-11.167-9.999-11.167-5.524 0-10.001 5-10.001 11.167Z" fill="#5B5959" mask="url(#d)"/><path d="M455.433 349h119.342S586 348.416 586 337.269v-51.04s-5.908-15.254-47.264-17.014c-41.357-1.76-65.578 7.04-65.578 36.374 0 0-23.928-1.468-23.928 12.905 0 14.374-2.069 30.506 6.203 30.506" fill="#D68F54" mask="url(#d)"/><path d="M462.39 314.22c7.823 13.55 17.666 18.78 17.666 18.78H521s-64.58-29.117-58.61-18.78" fill="#233862" mask="url(#d)"/><path d="M495.001 418.997c1.094 1.224 1.232 2.592.692 4.052a.028.028 0 0 1-.01.02c-1.002 2.702-4.31 5.719-8.151 8.732-.492.385-.928.738-1.308 1.064-.1.086-.2.17-.294.257-.078.066-.152.136-.227.2-3.581 3.224-2.233 3.963-8.67 10.506-7.339 7.456-12.392 7.59-13.828 6.911-1.218-.578 1.253-4.532 3.99-8.98.134-.211.264-.43.4-.646.365-.591.728-1.19 1.089-1.786 3.208-5.349 2.384-7.858 1.623-15.818-.617-6.47-10.307-36.143-10.307-36.143L474.065 385s4.235 23.629 8.902 27.268c2.497 1.94 5.288 1.963 7.687 3.402.169.1.336.202.5.309 1.361.88 2.75 1.79 3.847 3.018" fill="#FD6062" mask="url(#d)"/><path d="M494.035 419.39c1.057 1.247 1.19 2.641.668 4.13a.03.03 0 0 1-.01.02c-1.185 2.75-4.299 5.81-7.888 8.868-.47.4-.883.77-1.252 1.113-.097.087-.194.173-.284.262-.076.067-.147.138-.22.204-3.46 3.285-2.158 4.038-8.377 10.705-7.092 7.597-11.976 7.734-13.364 7.042-1.176-.59 1.211-4.618 3.857-9.15 1.38-.519 7.794-3.2 12.643-9.588 4.27-5.612 7.117-12.82 10.025-16.996.164.102.326.206.484.314 1.315.897 2.658 1.825 3.718 3.076" fill="#233862" mask="url(#d)"/><path d="M384.059 411.806c-.845 4.268-6.864 3.557-13.59 1.895-6.724-1.661-5.126.314-14.696-.758-9.572-1.07-12.472-4.678-12.763-6.116-.262-1.277 4.468-1.726 9.54-2.318.637-.072 1.278-.151 1.92-.231 5.727-.728 9.922-4.463 15.123-7.531C374.521 393.84 381.876 382 381.876 382L395 383.05s-6.889 10.577-9.552 15.175c-1.567 2.705-1.484 6.28-1.29 9.042.104 1.5.2 3.035-.1 4.539" fill="#FD6062" mask="url(#d)"/><path d="M369.962 413.638c-6.845-1.742-5.219.33-14.96-.795-9.744-1.12-12.696-4.905-12.991-6.412-.268-1.339 4.546-1.81 9.711-2.431l.047.104s5.844 4.313 13.954 4.516c6.61.166 13.611-1.805 18.174-1.728.105 1.573.204 3.182-.102 4.759-.86 4.475-6.987 3.73-13.833 1.987M434 326.204l12.261 33.276 16.01 43.448s4.344.423 8.503-.782c3.832-1.118 8.226-4.038 8.226-4.038s-4.445-46.652-12.737-73.43c-2.125-6.876-4.508-12.436-7.136-15.565C446.273 293.793 434 326.204 434 326.204" fill="#233862" mask="url(#d)"/><path d="M446.845 273.608c8.071-2.598 31.09.74 54.212 5.256l4.842-7.97L555.844 267s16.479 36.485 7.455 59.732c-1.325 3.416-3.96 5.608-8.452 5.68-.001.003-.726-.002-.729 0 0 0-29.725-.017-39.378-.017-24.838 0-52.567-17.045-56.153-17.76-5.87-1.172-8.22 10.548-14.09 22.856C438.625 349.801 389.31 392 389.31 392s-7.58.073-10.713-1.098c-3.367-1.262-4.597-2.9-4.597-2.9s54.646-108.532 72.845-114.394" fill="#2B478B" mask="url(#d)"/><path d="M518.093 198.332c15.467 12.991 30.95 38.723 31.157 38.63 0 0-22.808.594-14.564-2.906 13.742-5.834 29.254-17.97 27.115-44.137-1.221-14.924-3.388-14.43-1.728-29.781.902-8.327-5.052-37.542-23.925-38.606-1.58-.09-11.127-1.477-17.972.625-17.446 5.353-25.3 67.418-.083 76.175" fill="#233862" mask="url(#d)"/><path d="M526.749 203.645c1.472-8.31-3.73-13.376-10.24-18.504-6.619-5.215-30.41-.137-25.958 7.025 8.75 14.085 14.11 21.934 22.48 22.752 7.101.69 12.248-2.958 13.718-11.273" fill="#FD6062" mask="url(#d)"/><path d="m522 190.883-7.013 13.798-15.933.319s-34.178-37.724-38.052-48.936c-4.125-11.945 5.554-7.467 9.624-6.121 0 0 43.436 35.845 51.374 40.94" fill="#FD6062" mask="url(#d)"/><path d="M464.693 163s-15.97-34.44-19.693-57.638c0 0 4.779-6.118 7.105-1.847 3.938 7.255 25.077 39.198 28.835 53.098 1.213 4.49-16.247 6.387-16.247 6.387" fill="#FD6062" mask="url(#d)"/><path d="M437.776 77.94s1.31-1.47 1.74 2.846l1.097 6.558s-2.681-10.58-.044-13.867c0 0 .385-.811 1.568.256 0 0 .51 9.735 1.905 13.216 0 0-3.396-10.785-.762-15.347 0 0 1.607-1.62 2.398.456 0 0-.007 8.607 2.057 14.614 0 0-1.765-11.166-.772-14.862 0 0 1.973-1.33 2.472 1.287 0 0 .784 6.804 2.325 14.378 0 0 2.608-4.986 6.24-4.627l-3.708 16.814-2.238 3.498-6.85 1.84-3.85-7.52s-3.707-8.01-4.346-16.679c0 0-.144-2.208.768-2.861M520.3 194.509c-.079.05 8.881 3.015 14.874.443 5.637-2.415 9.907-11.402 9.825-11.407-2.566-.114-5.38-2.288-7.548-16.545l-1.093.38L518 173.782s1.33 5.71 2.19 11.146c.723 4.563 1.113 8.935.11 9.581" fill="#FD6062" mask="url(#d)"/><path d="M518 172.567s1.304 5.857 2.147 11.433c10.337-1.888 14.398-12.333 15.853-18l-18 6.567Z" fill="#AB2A41" mask="url(#d)"/><path d="M518.08 178.83c5.853 4.385 23.425-4.075 24.054-16.625.764-15.297 4.315-25.431-11.751-26.954-16.067-1.524-19.44 4.193-20.926 9.25-1.487 5.059.466 28.217 8.623 34.328" fill="#FD6062" mask="url(#d)"/><path d="M512 135.715s12.854 16.6 23.123 19.748c10.27 3.148 14.877.485 14.877.485s-5.191-6.457-7.321-15.65c-.63-2.712-2.621-4.88-5.242-5.636-7.352-2.126-21.474-5.207-25.437 1.053" fill="#233862" mask="url(#d)"/><path d="M522 136.08s-6.034 4.031-8.335 7.448c-2.223 3.295-4.3 11.812-3.709 15.472 0 0-4.977-17.307.947-24.081 6.283-7.187 11.097 1.16 11.097 1.16" fill="#233862" mask="url(#d)"/><path d="M500.005 230.213c.754 50.124.208 39.65 5.734 44.406 1.333 1.146 5.077 1.829 10.006 2.15 15.496 1.02 42.737-1.511 43.773-4.351 3.574-9.83 1.051-12.882 4.032-27.93.312-1.598.697-3.331 1.149-5.218 2.485-10.334 4.905-13.85-3.915-30.454-8-15.039-16.311-27.245-17.06-26.804-21.103 12.426-22.806 1.98-22.806 1.98s-21.283 21.771-20.913 46.221" fill="#B0D4FF" mask="url(#d)"/><path d="m446 359.659 16.137 43.27s4.38.42 8.573-.78c3.86-1.112 8.29-4.02 8.29-4.02s-4.48-46.461-12.838-73.129L446 359.659Z" fill="#2B478B" mask="url(#d)"/><path d="M516 276.771c15.234 1.013 42.017-1.5 43.035-4.32 3.515-9.757 1.034-12.788 3.965-27.727L555.653 224s1.215 23.079-5.58 29.148c-6.79 6.07-27.823 11.717-31.126 16.79-1.595 2.433-2.642 4.875-2.947 6.833" fill="#8FB0D1" mask="url(#d)"/><path d="M534 267.267s-15.249-3.261-17.71-1.96c-2.46 1.3-8.473 6.032-9.227 7.678-.753 1.648 5.48-1.249 7.505-1.77 1.312-.34 4.769.815 6.478 1.362 7.197 2.304 11.608 1.118 11.608 1.118l1.346-6.428Z" fill="#FD6062" mask="url(#d)"/><path d="M543.456 182s20.122 1.249 27.088 11.039c9.805 13.779 29.256 72.506 18.108 80.338-12.554 8.82-57.136 2.307-57.136 2.307s-1.483-6.988.58-10.366c2.065-3.38 35.61-8.84 37.157-10.4 1.549-1.56-19.352-30.42-19.352-35.1S543.456 182 543.456 182" fill="#B0D4FF" mask="url(#d)"/><path d="M539 184.171s22.34 1.54 27.933 8.741c5.173 6.66 17.795 38.087 21.105 54.737C591.35 264.3 590.521 272 590.521 272s4.346-6.868-1.862-31.427c-5.466-21.623-12.622-44.955-20.484-50.782-7.863-5.828-25.132-7.791-25.132-7.791L539 184.171Z" fill="#8FB0D1" mask="url(#d)"/><path d="M515 270s-3.213 4.124-4.267 4.617c-1.053.493-1.733.37-1.733.37l2.164-3.879L515 270ZM516 265l-9 4.415s.382.633 1.492.582c1.106-.05 3.902-1.084 3.902-1.084L516 265Z" fill="#FD6062" mask="url(#d)"/><path d="M521 184.817s-3.913.088-7.739-2.528c-6.683-4.573-15.46-13.437-19.562-17.016a681.743 681.743 0 0 1-12.07-10.79s-14.153-27.807-19.147-34.447c-4.995-6.64-7.076-12.036-7.076-12.036L445 114.64s8.325 36.522 17.482 48.973c9.157 12.45 41.206 49.387 41.206 49.387" fill="#B0D4FF" mask="url(#d)"/><path fill="#9292A8" mask="url(#d)" d="M506 277h-73.031L411 223h72.919z"/><path fill="#72727C" mask="url(#d)" d="M432 275h97v2h-96.14z"/><path d="M452.136 249.5c-.531-1.933.54-3.5 2.4-3.5 1.857 0 3.795 1.567 4.327 3.5.533 1.932-.54 3.5-2.4 3.5-1.856 0-3.793-1.568-4.327-3.5" fill="#FFF" mask="url(#d)"/><path fill="#9386A7" mask="url(#d)" d="M120 296h592v-20H120z"/><path fill="#5B6B72" mask="url(#d)" d="M656 494h12V296h-12zM163 494h12V296h-12z"/><path d="M381 166.18s2.278 5.327 7.083 4.78C391.988 170.52 393 165 393 165s-3.549 2.644-12 1.18" fill="#FFF" mask="url(#d)"/><path d="M317 268.767c0 1.787 1.341 3.233 2.999 3.233h66c1.657 0 3.001-1.446 3.001-3.233v-45.533c0-1.785-1.344-3.234-3-3.234h-66.001c-1.658 0-2.999 1.449-2.999 3.234v45.533Z" fill="#D7D7E6" mask="url(#d)"/><path d="M317 268.766V223.22c0-1.737 1.27-3.143 2.86-3.22 4.492 1.974 15.3 6.93 30.379 15.134 19.438 10.574 25.916 35.439 26.761 35.724L374.098 272h-54.106c-1.654 0-2.992-1.447-2.992-3.234" fill="#9292A8" mask="url(#d)"/><path d="M301 274.5c0 1.38 1.156 2.5 2.584 2.5h83.832c1.428 0 2.584-1.12 2.584-2.5 0-1.382-1.156-2.5-2.584-2.5h-83.832c-1.428 0-2.584 1.118-2.584 2.5" fill="#7A7A8C" mask="url(#d)"/><path d="M272.249 306s50.025 19.529 47.67 59.177C317.786 401.107 283.432 464 283.432 464l-14.713-2.96s16.478-68.643 15.3-86.396C283.345 364.486 244 349.791 244 349.791L272.249 306Z" fill="#FD6062" mask="url(#d)"/><path d="M319 373.639c-.075.425-.153.854-.235 1.283-18-1.546-28.641-.724-34.813 1.078a30.363 30.363 0 0 0-.058-2.08c-.16-2.362-2.461-4.972-5.894-7.583L304.089 361 319 373.639Z" fill="#AB2A41" mask="url(#d)"/><path d="M283.914 464.16s-.996 5.57 2.215 13.259c2.698 6.456 13.698 14.897 14.834 19.616.49 2.023-3.937 3.347-12.708-.48-15.337-6.692-12.82-12.828-16.136-13.759-3.315-.93-4.099 10.523-4.099 10.523l-3.013-.926s-.17-8.526 1.15-15.56c1.32-7.036 2.668-15.833 2.668-15.833l15.089 3.16Z" fill="#231B41" mask="url(#d)"/><path d="M311.25 313s50.024 19.527 47.67 59.176C356.786 408.107 322.431 471 322.431 471l-14.714-2.96s16.479-68.642 15.303-86.397C322.345 371.485 283 356.79 283 356.79L311.25 313Z" fill="#FD6062" mask="url(#d)"/><path d="M322.914 471.16s-.995 5.57 2.215 13.259c2.698 6.456 13.698 14.895 14.834 19.616.49 2.023-3.936 3.347-12.707-.48-15.338-6.692-12.82-12.828-16.136-13.757-3.317-.931-4.1 10.52-4.1 10.52l-3.013-.925s-.17-8.526 1.15-15.56c1.319-7.036 2.67-15.833 2.67-15.833l15.087 3.16Z" fill="#231B41" mask="url(#d)"/><path d="m238.924 368 4.116.11c-.517 3.955-15.511 119.021-11.967 127.464 3.606 8.591 23.877-9.968 27.033-15.528 3.121-5.5-.8-109.338-.883-111.55l3.54.096s5.9 110.268 1.77 116.79c-4.133 6.522-33.053 30.236-37.776 20.157C220.037 495.461 238.924 368 238.924 368M322.923 367l4.117.119c-.517 4.207-15.512 126.67-11.969 135.656 3.607 9.144 23.878-10.61 27.034-16.526 3.122-5.854-.8-116.368-.884-118.72l3.541.102s5.901 117.356 1.77 124.297c-4.132 6.94-33.053 32.18-37.774 21.453C304.036 502.655 322.923 367 322.923 367" fill="#5B5959" mask="url(#d)"/><path d="M322.982 295.776s4.873-29.331 7.531-42.665c2.659-13.332 6.205-63.107 3.545-67.551-.051-.086-26.507-3.032-28.8-4-2.121-.896-4.691-1.566-7.353-2.068-7.489-1.357-15.088-1.48-16.395-1.492h-.199c-12.998 3.995-23.334 11.56-30.868 20.448-7.533 8.89-11.52 44.888-10.19 54.665 1.328 9.777 3.545 11.555 3.545 11.555l1.771 12.89c1.773 12.887 5.319 20.442 5.319 20.442l72.296-1.439c-.135-.499-.202-.785-.202-.785" fill="#6153CF" mask="url(#d)"/><path d="M240.266 252.639c-.492-3.378-.29-9.943.52-17.411C245.423 223.542 251 212 251 212c-5.134 18.79-7 52-7 52s-2.335-1.747-3.734-11.361" fill="#131026" mask="url(#d)"/><path d="M359.52 368H239.307S228 367.406 228 356.11v-51.715s5.951-15.455 47.609-17.238c41.658-1.783 66.057 11.887 66.057 28.532 0 0 24.103 9.511 24.103 24.075S367.85 368 359.519 368" fill="#D68F54" mask="url(#d)"/><path d="m303.24 180 1.47-13.299s11.19-5.023 13.84-20.981c2.648-15.958-6.479-35.76-25.027-29.552-18.55 6.205-20.02 23.937-17.665 32.803 2.355 8.865 5.888 9.457 5.888 15.367v13.294s7.066-.883 21.493 2.368" fill="#FD6062" mask="url(#d)"/><path d="M314.588 120.122s3.54 6.193-.59 13.27c-4.127 7.077-10.909 11.206-10.909 11.206s0 15.63-6.487 18.283c-6.487 2.654-15.629.885-21.23-8.551-5.602-9.437-4.13-27.72-4.13-27.72s-13.896-7.31-5.601-18.873c9.731-13.564 18.282 1.18 18.282 1.18s23.293-7.963 30.665 11.205" fill="#231B41" mask="url(#d)"/><path d="m317 200.893 7.578 14.767 17.218.34s36.935-40.372 41.12-52.37c4.458-12.782-6-7.991-10.4-6.552 0 0-46.937 38.362-55.516 43.815" fill="#FD6062" mask="url(#d)"/><path d="M379.213 172S396.07 134.737 400 109.637c0 0-5.044-6.62-7.5-1.998-4.158 7.849-26.47 42.41-30.436 57.451-1.282 4.857 17.149 6.91 17.149 6.91" fill="#FD6062" mask="url(#d)"/><path d="M408.15 80.348s-1.434-1.556-1.903 3.014l-1.204 6.944s2.936-11.203.048-14.684c0 0-.421-.859-1.716.272 0 0-.56 10.308-2.089 13.993 0 0 3.721-11.419.836-16.25 0 0-1.76-1.715-2.626.483 0 0 .007 9.113-2.252 15.474 0 0 1.934-11.823.845-15.736 0 0-2.161-1.407-2.708 1.361 0 0-.859 7.206-2.547 15.225 0 0-2.855-5.28-6.834-4.899l4.062 17.803 2.45 3.704 7.504 1.948 4.217-7.962s4.06-8.481 4.758-17.66c0 0 .159-2.338-.84-3.03" fill="#FD6062" mask="url(#d)"/><path d="M326.873 233s44.572-48.044 54.388-61.39C391.077 158.265 400 119.118 400 119.118L388.846 112s-2.231 5.784-7.585 12.901c-5.353 7.118-20.524 36.924-20.524 36.924s-5.8 5.337-12.938 11.564c-4.397 3.838-14.357 9.631-21.52 14.533-4.102 2.805-14.279 6.524-14.279 6.524" fill="#6153CF" mask="url(#d)"/><path d="M515 168.2s4.063 1.798 7.719.999C526.375 168.399 528 168 528 168s-2.515 5.688-8.125 5.995c-3.656.2-4.875-5.795-4.875-5.795" fill="#FFF" mask="url(#d)"/><path d="M207.66 267.13c-.578 1.539-3.184 2.366-4.468 2.688.514-1.213.834-2.531.924-3.912.792-1.116 2.044-1.767 2.962-1.596.82.153 1.315.873.582 2.82m1.212-4.279c-1.086-.688-3.197-.42-4.728-.09v-2.277c0-.502-.034-.997-.094-1.484h-22.955c-.06.487-.095.982-.095 1.484v4.63c0 6.536 5.208 11.886 11.573 11.886 3.446 0 6.551-1.571 8.676-4.048v.003s5.46-1.38 7.176-3.472c1.712-2.091 2.269-5.475.447-6.632" fill="#C45446" mask="url(#d)"/><path d="M182 260.486v4.628c0 6.534 5.158 11.886 11.46 11.886.521 0 1.037-.038 1.54-.115-5.581-.783-9.918-5.777-9.918-11.77v-4.63a12 12 0 0 1 .093-1.485h-3.083c-.06.487-.092.983-.092 1.486" fill="#E37970" mask="url(#d)"/><path fill="#C45446" mask="url(#d)" d="M188 278h10v-2h-10zM594.922 264.31c.918-.171 2.17.48 2.962 1.596.09 1.38.41 2.699.924 3.912-1.284-.322-3.89-1.15-4.468-2.688-.733-1.947-.238-2.667.582-2.82m-1.347 5.173c1.716 2.091 7.177 3.472 7.177 3.472l-.001-.003c2.125 2.477 5.23 4.048 8.676 4.048 6.365 0 11.573-5.35 11.573-11.887v-4.629c0-.502-.034-.997-.095-1.484H597.95c-.06.487-.094.982-.094 1.484v2.277c-1.531-.33-3.642-.598-4.728.09-1.822 1.157-1.265 4.54.447 6.632"/><path d="M618.908 259h-3.083c.061.487.093.983.093 1.486v4.628c0 5.994-4.337 10.988-9.918 11.772.503.077 1.019.114 1.54.114 6.302 0 11.46-5.352 11.46-11.886v-4.628c0-.503-.032-1-.092-1.486" fill="#E37970" mask="url(#d)"/><path fill="#C45446" mask="url(#d)" d="M605 278h10v-2h-10z"/><path d="m462 163 43 40.818L502.224 215S465.33 167.19 462 163" fill="#8FB0D1" mask="url(#d)"/><path d="M334 232.836c-.015-.27-.031-.532-.054-.78-.11-1.224-3.706 18.014-8.649 31.935C320.354 277.91 315 289.784 315 289.784l9.301 3.216c1.036-6.14 4.967-29.27 7.254-40.645.8-3.972 1.678-11.217 2.445-19.52" fill="#131026" mask="url(#d)"/></g></svg>